<svg xmlns="http://www.w3.org/2000/svg" width="210.63" height="96.537" viewBox="0 0 210.63 96.537">
  <g id="Group_301" data-name="Group 301" transform="translate(-75 -115.75)">
    <path id="Path_3772" data-name="Path 3772" d="M117.539,78.821a2.413,2.413,0,0,1-.507,0l-41.359-9a2.412,2.412,0,0,1-1.894-2.412l2.2-57.425A2.411,2.411,0,0,1,78.87,7.718l41.359,8.72a2.412,2.412,0,0,1,1.918,2.412l-2.219,57.618a2.412,2.412,0,0,1-2.412,2.316ZM78.677,65.553l36.57,7.912,2.026-52.709L80.691,13.026Z" transform="translate(90.21 117.376)" fill="#fff"/>
    <path id="Path_3773" data-name="Path 3773" d="M110.471,78.912a2.394,2.394,0,0,1-2.4-2.509L110.278,18.8A2.412,2.412,0,0,1,112.2,16.53l44.217-9.251a2.415,2.415,0,1,1,.989,4.728L115.03,20.86,113,73.509l41.19-8.66a2.415,2.415,0,0,1,.989,4.728l-44.217,9.239A2.219,2.219,0,0,1,110.471,78.912Z" transform="translate(97.278 117.285)" fill="#fff"/>
    <path id="Path_3774" data-name="Path 3774" d="M119.381,22.8a2.219,2.219,0,0,1-.495,0l-41.371-8.72a2.412,2.412,0,0,1,0-4.716L121.733.008a2.726,2.726,0,0,1,.989,0l41.407,8.781a2.412,2.412,0,0,1,0,4.716l-44.217,9.239A2.219,2.219,0,0,1,119.381,22.8ZM89.758,11.671l29.623,6.248,32.47-6.791-29.623-6.3Z" transform="translate(90.587 115.788)" fill="#fff"/>
    <path id="Path_3775" data-name="Path 3775" d="M75.372,80.71,79.2,20.571a3.86,3.86,0,0,0-1.363-.265L52.745,19.57a5.283,5.283,0,0,0-3.908,1.64L25.16,53.933l-8.129-.072A15.6,15.6,0,0,0,1.544,68.335L0,92.458H21.168a18.575,18.575,0,1,1,37.149,0H160.478c2.81-4.487,5.6-7.418,8.588-11.784ZM71.464,54.44l-36.776-.893L52.262,27.012A4.9,4.9,0,0,1,56.4,24.8l16.886.555Z" transform="translate(75 119.83)" fill="#5fd247"/>
    <path id="Path_3776" data-name="Path 3776" d="M179.612,31.035h-38.44a2.412,2.412,0,1,1,0-4.825h38.44a2.412,2.412,0,0,1,0,4.825Z" transform="translate(103.605 121.199)" fill="#fff"/>
    <path id="Path_3777" data-name="Path 3777" d="M175.45,39.825H137.022a2.412,2.412,0,0,1,0-4.825H175.45a2.412,2.412,0,1,1,0,4.825Z" transform="translate(102.75 123.011)" fill="#fff"/>
    <path id="Path_3778" data-name="Path 3778" d="M170.806,48.5H130.412a2.412,2.412,0,1,1,0-4.825h40.454a2.412,2.412,0,0,1,0,4.825Z" transform="translate(101.387 124.8)" fill="#fff"/>
  </g>
</svg>
