<svg xmlns="http://www.w3.org/2000/svg" width="283.352" height="283.27" viewBox="0 0 283.352 283.27">
  <g id="Group_344" data-name="Group 344" transform="translate(-37.974 -40.73)">
    <path id="Path_3779" data-name="Path 3779" d="M348.366,205.259a46.448,46.448,0,1,1-46.448-46.449A46.447,46.447,0,0,1,348.366,205.259Z" transform="translate(-160.627 -118.08)" fill="#c7f9ed" opacity="0.2"/>
    <circle id="Ellipse_1" data-name="Ellipse 1" cx="25.982" cy="25.982" r="25.982" transform="translate(115.799 62.195)" fill="#59dcd2"/>
    <path id="Path_3780" data-name="Path 3780" d="M270.859,184.5a7.6,7.6,0,1,1,0-10.753A7.6,7.6,0,0,1,270.859,184.5Z" transform="translate(-160.026 -114.91)" fill="#59dcd2"/>
    <circle id="Ellipse_2" data-name="Ellipse 2" cx="3.802" cy="3.802" r="3.802" transform="translate(101.654 81.043)" fill="#59dcd2"/>
    <path id="Path_3781" data-name="Path 3781" d="M250.14,188.792a3.8,3.8,0,1,1,0-5.377A3.8,3.8,0,0,1,250.14,188.792Z" transform="translate(-163.574 -112.222)" fill="#59dcd2"/>
    <circle id="Ellipse_3" data-name="Ellipse 3" cx="11.725" cy="11.725" r="11.725" transform="translate(254.837 263.312) rotate(-45)" fill="#7d5bb4"/>
    <circle id="Ellipse_4" data-name="Ellipse 4" cx="11.725" cy="11.725" r="11.725" transform="translate(276.372 245.003) rotate(-76.772)" fill="#7d5bb4"/>
    <circle id="Ellipse_5" data-name="Ellipse 5" cx="11.725" cy="11.725" r="11.725" transform="translate(288.162 266.322) rotate(-45)" fill="#7d5bb4"/>
    <g id="Group_335" data-name="Group 335" transform="translate(39 54.499)">
      <circle id="Ellipse_6" data-name="Ellipse 6" cx="94.15" cy="94.15" r="94.15" transform="translate(0 133.148) rotate(-45)" fill="none" stroke="#7d5bb4" stroke-miterlimit="10" stroke-width="1.452" stroke-dasharray="7.258"/>
      <circle id="Ellipse_7" data-name="Ellipse 7" cx="87.784" cy="87.784" r="87.784" transform="translate(28.154 198.918) rotate(-77.113)" fill="#99d3eb" opacity="0.2"/>
      <g id="Group_334" data-name="Group 334" transform="translate(33.757 59.064)">
        <g id="Group_318" data-name="Group 318" transform="translate(68.135)">
          <path id="Path_3785" data-name="Path 3785" d="M314.134,280.992a39.838,39.838,0,0,1-8.672.937,13.359,13.359,0,0,1-8.112-2.8c-3.568-3-4.574-8.041-4.878-12.694a69.081,69.081,0,0,1,2.569-23.611c1.814-6.282,4.5-12.536,10.7-15.49,5.936-2.827,15-3.161,20.232,1.439a13.836,13.836,0,0,1,3.283,4.656c3.652,7.9,2.479,17.1.935,25.663a13.859,13.859,0,0,1,4.139-.81,5.964,5.964,0,0,1,2.063.547c2.078,1.086,2.515,4.1,1.387,6.157s-3.357,3.266-5.593,3.969l2.154,25.573c-.11,2.331-1.493,4.394-2.932,6.232a13.279,13.279,0,0,1-2.506,2.6c-2.1,1.538-4.834,1.872-7.435,1.958a11.34,11.34,0,0,1-4.589-.55c-2.817-1.121-4.432-4.032-5.777-6.749Z" transform="translate(-292.327 -215.074)" fill="#f4d0b8"/>
          <path id="Path_3786" data-name="Path 3786" d="M325.991,254.057c-1.283.372-2.834,1.069-3.431,2.355a.391.391,0,0,0,.531.53,8.748,8.748,0,0,0,1.182-.7,5.055,5.055,0,0,0-.229,1.865.5.5,0,0,0,.73.3,2.51,2.51,0,0,0,.552-2.877,8.487,8.487,0,0,1,1.028-.6C326.841,254.686,326.5,253.91,325.991,254.057Z" transform="translate(-284.799 -207.896)" fill="#f4d0b8"/>
          <g id="Group_303" data-name="Group 303" transform="translate(21 38.125)">
            <path id="Path_3787" data-name="Path 3787" d="M309.174,248.86c-.072,1.032-.129,2.621.685,3.371a1.06,1.06,0,0,0,1.457,0c.96-.811.721-2.644.359-3.709a1.279,1.279,0,0,0-2.5.339Z" transform="translate(-309.135 -247.621)" fill="#2b3f59"/>
          </g>
          <g id="Group_304" data-name="Group 304" transform="translate(5.796 38.125)">
            <path id="Path_3788" data-name="Path 3788" d="M297,248.86c-.072,1.032-.127,2.621.685,3.371a1.061,1.061,0,0,0,1.458,0c.958-.811.721-2.644.357-3.709a1.279,1.279,0,0,0-2.5.339Z" transform="translate(-296.966 -247.621)" fill="#2b3f59"/>
          </g>
          <g id="Group_305" data-name="Group 305" transform="translate(12.827 38.377)">
            <path id="Path_3789" data-name="Path 3789" d="M303.484,248.09a16.249,16.249,0,0,0-.727,4.107,12.355,12.355,0,0,0,.033,4.137.37.37,0,0,0,.707,0,23.376,23.376,0,0,0,.319-3.827c.117-1.438.4-2.874.419-4.315a.384.384,0,0,0-.75-.1Z" transform="translate(-302.594 -247.823)" fill="#2b3f59"/>
          </g>
          <g id="Group_306" data-name="Group 306" transform="translate(8.209 47.871)">
            <path id="Path_3790" data-name="Path 3790" d="M299.018,257.515c2.916,3.122,10.761,2.814,12.343-1.68a.328.328,0,0,0-.545-.317c-2.6,2.939-8.062,4.323-11.2,1.4a.422.422,0,0,0-.6.6Z" transform="translate(-298.897 -255.422)" fill="#2b3f59"/>
          </g>
          <path id="Path_3791" data-name="Path 3791" d="M320.4,257.692a4.847,4.847,0,1,1-4.846-4.848A4.847,4.847,0,0,1,320.4,257.692Z" transform="translate(-287.743 -208.194)" fill="#f4d0b8"/>
          <path id="Path_3792" data-name="Path 3792" d="M299.552,256.456a3.613,3.613,0,1,1-3.613-3.612A3.614,3.614,0,0,1,299.552,256.456Z" transform="translate(-292.327 -208.194)" fill="#f4d0b8"/>
          <path id="Path_3793" data-name="Path 3793" d="M309.95,271.024s3.649.442,10.851-5.8c0,0-3.277,9.606-11.7,10.537Z" transform="translate(-288.143 -205.106)" fill="#f8dac7"/>
          <path id="Path_3794" data-name="Path 3794" d="M329.114,222.061l3.073-1.134a.31.31,0,0,1,.2-.025.292.292,0,0,1,.152.217,3.7,3.7,0,0,1-.31,2.786l-.134.312a14.814,14.814,0,0,1,4.554,8.045,28.541,28.541,0,0,1,.176,13.147s-.414,6.645-1.655,9.453c-1.191,2.692-3.422,4.76-5.595,6.748l-.633.427a15.415,15.415,0,0,1-3.887-8.4,23.849,23.849,0,0,1,.663-9.315l-.092-.518a4.707,4.707,0,0,1-2.956-.137,2.112,2.112,0,0,1-1.228-2.453l-.155-.3a24.747,24.747,0,0,1-16.634,2.359c-3.113-.661-6.343-2.163-7.711-5.036l-.395-.416a11.4,11.4,0,0,1,1.754-10.3,14.292,14.292,0,0,1,9.144-5.379c2.525-.417,5.121-.234,7.644-.668s5.126-1.673,6.2-3.994l.672-.372a1.954,1.954,0,0,1,1.328,1.514,5.769,5.769,0,0,1-.04,2.11l.772.179,4.052-2.515c.256-.159.622-.3.822-.08a.627.627,0,0,1,.109.424,5.706,5.706,0,0,1-.841,2.932Z" transform="translate(-291.413 -217.106)" fill="#dc8863"/>
          <g id="Group_343" data-name="Group 343">
            <g id="Group_307" data-name="Group 307" transform="translate(9.385 11.182)">
              <path id="Path_3795" data-name="Path 3795" d="M301.026,235.091c-.472-3.336,1.118-5.993,3.392-8.266a.456.456,0,0,0-.55-.713c-3.275,1.733-4.473,5.807-3.887,9.268.117.692,1.141.389,1.044-.289Z" transform="translate(-299.838 -226.056)" fill="#f3bc9a"/>
            </g>
            <g id="Group_308" data-name="Group 308" transform="translate(13.649 12.517)">
              <path id="Path_3796" data-name="Path 3796" d="M304.38,236.118a8.983,8.983,0,0,1,3.746-8.008c.542-.424-.147-1.218-.708-.92a8.352,8.352,0,0,0-4,9.057c.106.533,1.008.421.958-.129Z" transform="translate(-303.251 -227.125)" fill="#f3bc9a"/>
            </g>
            <g id="Group_309" data-name="Group 309" transform="translate(18.415 15.096)">
              <path id="Path_3797" data-name="Path 3797" d="M308.124,235.87a13.292,13.292,0,0,1,3.306-5.68c.4-.452-.141-1.3-.688-.893a10.237,10.237,0,0,0-3.663,6.286c-.132.676.875.971,1.046.287Z" transform="translate(-307.066 -229.189)" fill="#f3bc9a"/>
            </g>
            <g id="Group_310" data-name="Group 310" transform="translate(23.665 16.324)">
              <path id="Path_3798" data-name="Path 3798" d="M311.99,236.65a8.347,8.347,0,0,0,3.931-6.1c.042-.475-.635-.5-.78-.1a11.832,11.832,0,0,1-3.722,5.465c-.42.33.126,1.029.571.74Z" transform="translate(-311.269 -230.172)" fill="#f3bc9a"/>
            </g>
            <g id="Group_311" data-name="Group 311" transform="translate(36.343 32.088)">
              <path id="Path_3799" data-name="Path 3799" d="M323.536,252.75c-1-3.25-.4-5.972.355-9.167a.639.639,0,0,0-1.163-.49c-1.819,2.915-1.53,6.885-.444,10,.272.781,1.5.461,1.252-.346Z" transform="translate(-321.416 -242.79)" fill="#f3bc9a"/>
            </g>
            <g id="Group_312" data-name="Group 312" transform="translate(38.611 33.167)">
              <path id="Path_3800" data-name="Path 3800" d="M324.079,252.426a4.8,4.8,0,0,0,2.005-2.937,16.322,16.322,0,0,0,1-5.361.493.493,0,0,0-.965-.13c-.478,1.306-.732,2.695-1.1,4.038-.335,1.236-.558,2.684-1.61,3.523-.5.4.14,1.177.668.867Z" transform="translate(-323.231 -243.653)" fill="#f3bc9a"/>
            </g>
            <g id="Group_313" data-name="Group 313" transform="translate(38.246 33.065)">
              <path id="Path_3801" data-name="Path 3801" d="M323.806,250.215a49.272,49.272,0,0,1,.4-6.321c.039-.38-.558-.444-.653-.089a22.836,22.836,0,0,0-.6,6.409.428.428,0,0,0,.855,0Z" transform="translate(-322.939 -243.572)" fill="#f3bc9a"/>
            </g>
            <g id="Group_314" data-name="Group 314" transform="translate(34.122 20.071)">
              <path id="Path_3802" data-name="Path 3802" d="M320.675,239.8a7.592,7.592,0,0,0,3.032-6.079.564.564,0,0,0-1.1-.15,10.988,10.988,0,0,1-2.776,5.382c-.567.541.262,1.328.847.847Z" transform="translate(-319.638 -233.171)" fill="#f3bc9a"/>
            </g>
            <g id="Group_315" data-name="Group 315" transform="translate(33.653 19.292)">
              <path id="Path_3803" data-name="Path 3803" d="M320.542,238.809a39.989,39.989,0,0,0-.033-5.687.6.6,0,0,0-1.191,0,40.254,40.254,0,0,0,.187,5.687.518.518,0,0,0,1.036,0Z" transform="translate(-319.263 -232.548)" fill="#f3bc9a"/>
            </g>
            <g id="Group_316" data-name="Group 316" transform="translate(22.093 5.102)">
              <path id="Path_3804" data-name="Path 3804" d="M310.506,223.6c3.749-1.191,7.305-2.1,10.852.285a17.149,17.149,0,0,1,5.575,6.578.4.4,0,0,0,.726-.306,14.159,14.159,0,0,0-6.585-7.846c-3.591-2.021-7.2-.954-10.786.5-.476.192-.3.956.219.791Z" transform="translate(-310.01 -221.189)" fill="#f3bc9a"/>
            </g>
            <g id="Group_317" data-name="Group 317" transform="translate(42.187 17.784)">
              <path id="Path_3805" data-name="Path 3805" d="M326.208,232.078c1.453,1.437.5,4.869.15,6.58-.071.344.417.6.6.251,1.026-1.985,1.845-5.887-.236-7.492-.384-.295-.841.332-.51.661Z" transform="translate(-326.094 -231.341)" fill="#f3bc9a"/>
            </g>
          </g>
        </g>
        <g id="Group_323" data-name="Group 323" transform="translate(0 11.432)">
          <g id="Group_319" data-name="Group 319">
            <path id="Path_3806" data-name="Path 3806" d="M238.844,253.194c.057,1.177.145,2.351.242,3.525a47.764,47.764,0,0,0,13.9-2.05,49.609,49.609,0,0,1,1.908-19.288,3.96,3.96,0,0,0,.286-1.933,1.279,1.279,0,0,0-1.388-1.094,1.691,1.691,0,0,0-.7.426c-1.188,1.044-3.346,3.4-3.346,3.4l.439-7.961c.042-.762-.092-1.9-1.158-1.739a1.808,1.808,0,0,0-1.2.954c-1.172,2.012-1.482,4.618-1.732,6.9.176-1.619-.5-7.525-2.33-8.033-1.149-.319-1.543,1.036-1.628,1.882-.242,2.421.25,4.9-.262,7.28.061-1.542.184-8.2-2.81-7.449-.938.237-1.224,1.417-1.263,2.383-.092,2.369,1.078,12.856,1.006,14.548C238.687,247.694,238.71,250.448,238.844,253.194Z" transform="translate(-237.792 -226.256)" fill="#f4d0b8"/>
            <path id="Path_3807" data-name="Path 3807" d="M240.222,240.365a4.283,4.283,0,0,0,3.3-1.7" transform="translate(-237.186 -223.162)" fill="none" stroke="#eab47d" stroke-miterlimit="10" stroke-width="0.149"/>
            <path id="Path_3808" data-name="Path 3808" d="M243.164,238.622a8.5,8.5,0,0,0,4.284,1.813" transform="translate(-236.452 -223.172)" fill="none" stroke="#eab47d" stroke-miterlimit="10" stroke-width="0.149"/>
            <path id="Path_3809" data-name="Path 3809" d="M247.616,234.287l-2.235,1.537" transform="translate(-235.899 -224.253)" fill="none" stroke="#eab47d" stroke-miterlimit="10" stroke-width="0.149"/>
            <path id="Path_3810" data-name="Path 3810" d="M247.461,234.158a1.893,1.893,0,0,0-1.72-.62" transform="translate(-235.81 -224.446)" fill="none" stroke="#eab47d" stroke-miterlimit="10" stroke-width="0.149"/>
          </g>
          <path id="Path_3811" data-name="Path 3811" d="M306.29,319.547c-12.2-1.753-47.537-17.191-57.644-22.008A14.024,14.024,0,0,1,240.8,286.9a256.3,256.3,0,0,1-2.707-36.964l.522-.575,13.985-3.737.1.034Q257.1,260.7,261.5,275.736a24.2,24.2,0,0,0,1.768,4.773l.877.2,34.92,4.671c9.88,1.323,19.976,2.71,28.856,7.239Z" transform="translate(-237.716 -221.426)" fill="#d3b434"/>
          <g id="Group_320" data-name="Group 320" transform="translate(25.352 58.327)">
            <path id="Path_3812" data-name="Path 3812" d="M258.105,273.443a19.218,19.218,0,0,1,1.072,5.665c.056,1.657-.41,3.3-.332,4.933.016.346.52.613.718.231,1.647-3.176.471-8.041-.845-11.136-.176-.416-.753-.1-.613.307Z" transform="translate(-258.084 -272.941)" fill="#e9d15d"/>
          </g>
          <g id="Group_321" data-name="Group 321" transform="translate(21.947 59.17)">
            <path id="Path_3813" data-name="Path 3813" d="M258.785,273.817a16.561,16.561,0,0,1-3.353,5.435c-.261.327.234.655.522.442a10.28,10.28,0,0,0,3.4-5.7.3.3,0,0,0-.568-.181Z" transform="translate(-255.358 -273.615)" fill="#e9d15d"/>
          </g>
          <g id="Group_322" data-name="Group 322" transform="translate(20.656 58.299)">
            <path id="Path_3814" data-name="Path 3814" d="M258.054,273.069a35.978,35.978,0,0,1-3.636,3.967c-.242.252.021.7.361.528a9.846,9.846,0,0,0,3.838-4.135.334.334,0,0,0-.563-.36Z" transform="translate(-254.325 -272.919)" fill="#e9d15d"/>
          </g>
        </g>
        <g id="Group_325" data-name="Group 325" transform="translate(106.889 82.524)">
          <g id="Group_324" data-name="Group 324" transform="translate(46.142 99.148)">
            <path id="Path_3815" data-name="Path 3815" d="M373.753,365.536c-.322-1.013-.67-2.018-1.026-3.019a43.067,43.067,0,0,0-11.649,5,44.774,44.774,0,0,1,2.794,17.266,3.574,3.574,0,0,0,.2,1.753,1.155,1.155,0,0,0,1.464.633,1.538,1.538,0,0,0,.513-.535c.795-1.184,2.133-3.741,2.133-3.741q.727,3.523,1.457,7.046c.14.673.521,1.639,1.413,1.249a1.634,1.634,0,0,0,.826-1.111,16.021,16.021,0,0,0-.085-6.421c.22,1.454,2.173,6.451,3.889,6.47,1.077.013,1.107-1.261.986-2.018-.349-2.169-1.352-4.219-1.454-6.413.3,1.359,1.737,7.2,4.173,5.848.763-.422.741-1.518.551-2.369-.466-2.089-3.912-10.967-4.24-12.459C375.162,370.3,374.505,367.9,373.753,365.536Z" transform="translate(-361.078 -362.517)" fill="#f4d0b8"/>
          </g>
          <path id="Path_3816" data-name="Path 3816" d="M329.156,307.684c5.568,16.086,22.084,32.233,27.652,48.318,4.37,12.624,8.761,25.3,14.864,37.179l2.675-.447q4.829-2.264,9.814-4.178l-.05-.623c-5.827-24.5-11.68-49.088-20.648-72.624-3.307-8.679-7.194-17.44-13.852-23.917s-16.712-10.234-25.465-7.124Z" transform="translate(-324.146 -283.158)" fill="#d3b434"/>
          <path id="Path_3817" data-name="Path 3817" d="M363.463,315.309c-3.307-8.679-7.194-17.44-13.852-23.917s-16.712-10.234-25.465-7.124l.112.166c7.41-.6,15.112,2.872,20.55,8.162,6.659,6.477,10.545,15.237,13.852,23.917,8.968,23.536,14.821,48.121,20.65,72.624l.05.623c-2.621,1.007-5.2,2.109-7.765,3.262.026.052.051.106.078.159l2.675-.447q4.829-2.264,9.814-4.178l-.05-.623C378.284,363.43,372.431,338.845,363.463,315.309Z" transform="translate(-324.146 -283.158)" fill="#fbf4c9"/>
        </g>
        <g id="Group_332" data-name="Group 332" transform="translate(63.017 79.128)">
          <path id="Path_3818" data-name="Path 3818" d="M348.69,289.82c-.229-3.071-2.661-4-4.949-5.556a25.685,25.685,0,0,0-4.813-2.677c-.6-.242-4.721-.9-4.859-1.147l.151.274a20.273,20.273,0,0,1-11.153,4.578,17.059,17.059,0,0,1-11.518-3.282l-.136-.146c-5.266.912-10.637,1.859-15.35,4.383a10.208,10.208,0,0,0-3.7,3c-2.972,4.289-2,12.193-2.138,17.161a250.812,250.812,0,0,0,4,51.452c.978.429,1.905.877,2.815,1.323a106.6,106.6,0,0,0,26.8,3.716c3.08.036,6.287.117,9.472-.035,1.212-.175,2.435-.259,3.648-.425,2.3-.469,4.579-.986,6.805-1.57,1.5-14.714,2.624-30.054,3.637-44.618C348.013,307.434,349.351,298.682,348.69,289.82Z" transform="translate(-287.756 -280.44)" fill="#d3b434"/>
          <path id="Path_3819" data-name="Path 3819" d="M345.374,289.1c-.229-3.071-2.661-4-4.949-5.556-.124-.085-.255-.156-.38-.239.628,8.8-.691,17.49-1.3,26.249-1.156,16.6-2.459,34.213-4.288,50.755-1.1.692-17.825.542-31.031.311a107.9,107.9,0,0,0,17.094,1.56c3.08.036,6.287.117,9.472-.035,1.212-.175,2.435-.259,3.648-.425,2.3-.469,4.579-.986,6.805-1.57,1.5-14.714,2.624-30.054,3.637-44.618C344.7,306.718,346.035,297.966,345.374,289.1Z" transform="translate(-284.441 -279.724)" fill="#fbf4c9"/>
          <g id="Group_326" data-name="Group 326" transform="translate(60.842 19.292)">
            <path id="Path_3820" data-name="Path 3820" d="M337.7,305.777c.506-3.252,1.662-6.227,2.415-9.4a.4.4,0,0,0-.721-.3c-1.675,2.8-2.213,6.392-2.465,9.6-.035.435.7.542.771.1Z" transform="translate(-336.929 -295.881)" fill="#e9d15d"/>
          </g>
          <g id="Group_327" data-name="Group 327" transform="translate(58.045 15.216)">
            <path id="Path_3821" data-name="Path 3821" d="M337.848,305.353a55.891,55.891,0,0,0-2.239-12.4.471.471,0,0,0-.908.25c.795,4.092,1.715,8.135,2.38,12.254.07.431.8.335.767-.1Z" transform="translate(-334.69 -292.619)" fill="#e9d15d"/>
          </g>
          <g id="Group_328" data-name="Group 328" transform="translate(54.918 20.27)">
            <path id="Path_3822" data-name="Path 3822" d="M337.494,304.454c-1.607-2.492-2.921-5.264-4.669-7.649-.2-.276-.768-.122-.611.257a46.023,46.023,0,0,0,4.715,7.721c.234.346.8.027.565-.33Z" transform="translate(-332.187 -296.664)" fill="#e9d15d"/>
          </g>
          <g id="Group_329" data-name="Group 329" transform="translate(2.109 10.77)">
            <path id="Path_3823" data-name="Path 3823" d="M290.719,308.568c.45-7.114,2.521-12.619,5.65-18.947.17-.342-.3-.778-.567-.437-4.208,5.286-6.073,12.712-5.867,19.384a.393.393,0,0,0,.785,0Z" transform="translate(-289.919 -289.06)" fill="#e9d15d"/>
          </g>
          <g id="Group_330" data-name="Group 330" transform="translate(1.936 9.885)">
            <path id="Path_3824" data-name="Path 3824" d="M290.989,308.17a60.722,60.722,0,0,1,2.358-19.3c.122-.43-.547-.741-.742-.312a32.8,32.8,0,0,0-2.189,19.69.293.293,0,0,0,.573-.077Z" transform="translate(-289.78 -288.352)" fill="#e9d15d"/>
          </g>
          <g id="Group_331" data-name="Group 331" transform="translate(0 15.913)">
            <path id="Path_3825" data-name="Path 3825" d="M291.088,305.547a84.273,84.273,0,0,0-2.155-12.11c-.13-.459-.766-.257-.7.191.617,4.019,1.542,7.991,2.169,12.012.06.384.733.3.683-.092Z" transform="translate(-288.231 -293.177)" fill="#e9d15d"/>
          </g>
        </g>
        <g id="Group_333" data-name="Group 333" transform="translate(72.638 97.537)">
          <path id="Path_3826" data-name="Path 3826" d="M313.893,300.751a12.382,12.382,0,0,0-3.871,24.145v7.594h1.548v2.321h4.645V332.49h1.548V324.9a12.383,12.383,0,0,0-3.871-24.145Z" transform="translate(-294.54 -293.784)" fill="#fff"/>
          <path id="Path_3827" data-name="Path 3827" d="M311.576,299.819a.773.773,0,0,0,.775-.773v-3.1a.775.775,0,0,0-1.549,0v3.1A.773.773,0,0,0,311.576,299.819Z" transform="translate(-292.223 -295.175)" fill="#fff"/>
          <path id="Path_3828" data-name="Path 3828" d="M327.064,310.045h-3.1a.774.774,0,1,0,0,1.548h3.1a.774.774,0,1,0,0-1.548Z" transform="translate(-289.133 -291.467)" fill="#fff"/>
          <path id="Path_3829" data-name="Path 3829" d="M299.8,310.045h-3.1a.774.774,0,1,0,0,1.548h3.1a.774.774,0,1,0,0-1.548Z" transform="translate(-295.931 -291.467)" fill="#fff"/>
          <path id="Path_3830" data-name="Path 3830" d="M321.98,299.756l-2.189,2.19a.774.774,0,0,0,1.094,1.094l2.189-2.19a.774.774,0,1,0-1.094-1.094Z" transform="translate(-290.037 -294.089)" fill="#fff"/>
          <path id="Path_3831" data-name="Path 3831" d="M302.7,319.034l-2.189,2.19a.774.774,0,0,0,1.094,1.094l2.189-2.189a.774.774,0,0,0-1.094-1.1Z" transform="translate(-294.845 -289.282)" fill="#fff"/>
          <path id="Path_3832" data-name="Path 3832" d="M320.886,319.034a.774.774,0,0,0-1.094,1.1l2.189,2.189a.774.774,0,0,0,1.094-1.094Z" transform="translate(-290.037 -289.282)" fill="#fff"/>
          <path id="Path_3833" data-name="Path 3833" d="M302.7,303.041a.774.774,0,0,0,1.094-1.094l-2.189-2.19a.774.774,0,1,0-1.094,1.094Z" transform="translate(-294.845 -294.089)" fill="#fff"/>
        </g>
      </g>
    </g>
    <g id="Group_338" data-name="Group 338" transform="translate(282.979 116.868)">
      <g id="Group_337" data-name="Group 337">
        <path id="Path_3835" data-name="Path 3835" d="M423.808,277.942l-4.132-4.35-13.871,9.829a2.643,2.643,0,0,0,1.728.868l31.108,2.877a2.626,2.626,0,0,0,1.85-.539l-11.825-12.205Z" transform="translate(-405.116 -258.325)" fill="#cfb2f2"/>
        <path id="Path_3836" data-name="Path 3836" d="M442.316,265.129a2.62,2.62,0,0,0-1.728-.868l-31.108-2.877a2.611,2.611,0,0,0-1.853.543l15.967,16.467Z" transform="translate(-404.662 -261.372)" fill="#cfb2f2"/>
        <path id="Path_3837" data-name="Path 3837" d="M407.248,263.012l-1.994,21.562,13.529-9.5Z" transform="translate(-405.254 -260.963)" fill="#cfb2f2"/>
        <path id="Path_3838" data-name="Path 3838" d="M425.086,275.446l11.558,11.819,1.995-21.57Z" transform="translate(-400.309 -260.294)" fill="#cfb2f2"/>
      </g>
    </g>
    <g id="Group_340" data-name="Group 340" transform="translate(276.725 155.88)">
      <g id="Group_339" data-name="Group 339" transform="translate(0 0)">
        <path id="Path_3839" data-name="Path 3839" d="M415.013,305.8l-3.863-2.119-7.505,9.98a1.943,1.943,0,0,0,1.4.221l22.406-4.948a1.922,1.922,0,0,0,1.173-.791l-11-5.892Z" transform="translate(-399.401 -290.191)" fill="#cfb2f2"/>
        <path id="Path_3840" data-name="Path 3840" d="M425.509,292.865a1.926,1.926,0,0,0-1.4-.221L401.7,297.592a1.917,1.917,0,0,0-1.176.795l14.855,7.947Z" transform="translate(-400.179 -292.598)" fill="#cfb2f2"/>
        <path id="Path_3841" data-name="Path 3841" d="M400.248,298.241l3.429,15.531,7.339-9.672Z" transform="translate(-400.248 -291.19)" fill="#cfb2f2"/>
        <path id="Path_3842" data-name="Path 3842" d="M415.352,303.465l10.73,5.682-3.431-15.536Z" transform="translate(-396.482 -292.345)" fill="#cfb2f2"/>
      </g>
    </g>
    <g id="Group_342" data-name="Group 342" transform="translate(293.778 182.313)">
      <g id="Group_341" data-name="Group 341">
        <path id="Path_3843" data-name="Path 3843" d="M424.919,324l-2.2-2.734-8.556,5.07a1.551,1.551,0,0,0,.967.588l18,3.158a1.53,1.53,0,0,0,1.1-.225l-6.313-7.679Z" transform="translate(-413.831 -311.882)" fill="#cfb2f2"/>
        <path id="Path_3844" data-name="Path 3844" d="M436.23,317.526a1.538,1.538,0,0,0-.966-.59l-18-3.158a1.533,1.533,0,0,0-1.107.229l8.524,10.361Z" transform="translate(-413.333 -313.754)" fill="#cfb2f2"/>
        <path id="Path_3845" data-name="Path 3845" d="M416.087,314.616,413.9,327.092l8.339-4.894Z" transform="translate(-413.897 -313.54)" fill="#cfb2f2"/>
        <path id="Path_3846" data-name="Path 3846" d="M425.781,322.6l6.175,7.441,2.19-12.48Z" transform="translate(-410.934 -312.804)" fill="#cfb2f2"/>
      </g>
    </g>
  </g>
</svg>
